# xmcd
#
# Track frame offsets: 
#        150
#        30798
#        72321
#        96594
#        123942
#        151665
#        187413
#        221436
#        238134
#
# Disc length: 3719 seconds
#
# Revision: 0
# Processed by: cddbd v1.5.2PL0 Copyright (c) Steve Scherf et al.
# Submitted via: ExactAudioCopy v1.0b3
#
DISCID=790e8509
DTITLE=Guitar Pete - Bad Intentions
DYEAR=2013
DGENRE=Blues Rock
TTITLE0=Bad Intentions
TTITLE1=Creepin'
TTITLE2=Goin' Down To Mexico
TTITLE3=Crawlin' Back
TTITLE4=Snake Pit
TTITLE5=Marked Man
TTITLE6=Warning
TTITLE7=Poppa's Hideaway
TTITLE8=Wasted
EXTD=
EXTT0=
EXTT1=
EXTT2=
EXTT3=
EXTT4=
EXTT5=
EXTT6=
EXTT7=
EXTT8=
PLAYORDER=
